ply
format ascii 1.0
comment Created by Blender 2.79 (sub 0) - www.blender.org, source file: ''
element vertex 507
property float x
property float y
property float z
element face 967
property list uchar uint vertex_indices
end_header
1.105723 0.571290 -1.396096
1.179438 0.221145 -1.561954
1.326867 0.571290 -1.598812
-1.179438 0.221145 -1.561954
-1.105723 0.571290 -1.396096
-1.326867 0.571290 -1.598812
1.290010 0.129001 -1.819956
1.474297 0.571290 -1.856814
-1.290010 0.129001 -1.819956
-1.474297 0.571290 -1.856814
0.829292 -0.055286 -1.727813
-0.829292 -0.055286 -1.727813
1.032008 0.387003 -1.377667
0.829292 0.073715 -1.488239
-0.829292 0.073715 -1.488239
-1.032008 0.387003 -1.377667
0.829292 0.313288 -1.340810
0.479147 0.221145 -1.432953
-0.479147 0.221145 -1.432953
-0.829292 0.313288 -1.340810
0.368574 0.129001 -1.654098
-0.368574 0.129001 -1.654098
0.331717 0.571290 -1.432953
-0.331717 0.571290 -1.432953
-0.184287 0.571290 -1.635669
0.645005 0.387003 -1.303952
-0.645005 0.387003 -1.303952
0.571290 0.571290 -1.303952
0.479147 0.921436 -1.432953
-0.479147 0.921436 -1.432953
-0.571290 0.571290 -1.303952
0.184287 0.571290 -1.635669
-0.368574 1.032008 -1.654098
0.829292 1.068865 -1.488239
0.368574 1.032008 -1.654098
-0.829292 1.068865 -1.488239
-0.829292 1.216295 -1.727813
0.829292 0.847721 -1.340810
0.645005 0.774006 -1.303952
-0.829292 0.847721 -1.340810
1.032008 0.774006 -1.377667
-1.032008 0.774006 -1.377667
-1.179438 0.921436 -1.561954
1.179438 0.921436 -1.561954
0.829292 1.216295 -1.727813
-1.290010 1.032008 -1.819956
1.290010 1.032008 -1.819956
1.124151 0.571290 -1.359238
-1.124151 0.571290 -1.359238
-1.050437 0.792435 -1.340810
1.050437 0.792435 -1.340810
-0.829292 0.884578 -1.285524
0.829292 0.884578 -1.285524
-0.645005 0.774006 -1.303952
-0.626576 0.792435 -1.248666
0.626576 0.792435 -1.248666
-0.534433 0.571290 -1.248666
0.626576 0.368574 -1.248666
0.534433 0.571290 -1.248666
-0.626576 0.368574 -1.248666
0.829292 0.276431 -1.285524
-0.829292 0.276431 -1.285524
1.050437 0.368574 -1.340810
-1.050437 0.368574 -1.340810
0.829292 0.571290 -1.230237
-0.829292 0.571290 -1.230237
0.387003 -2.193017 -1.690955
0.000000 -2.322018 -1.819956
0.423860 -2.285161 -1.875242
-0.387003 -2.193017 -1.690955
0.000000 -2.229874 -1.672527
0.552861 -2.156159 -1.690955
0.774006 -2.229874 -1.948957
-0.552861 -2.156159 -1.690955
-0.423860 -2.285161 -1.875242
0.866150 -2.100873 -1.930529
-0.866150 -2.100873 -1.930529
-0.774006 -2.229874 -1.948957
0.829292 -1.640155 -1.838385
0.626576 -1.935015 -1.617240
-0.626576 -1.935015 -1.617240
-0.829292 -1.640155 -1.838385
0.737149 -1.032008 -1.838385
0.589719 -1.658584 -1.561954
-0.589719 -1.658584 -1.561954
-0.737149 -1.032008 -1.838385
0.479147 -0.442289 -1.856814
0.939864 -0.110572 -1.598812
0.294859 -0.239573 -1.267095
-0.939864 -0.110572 -1.598812
-0.479147 -0.442289 -1.856814
-0.294859 -0.239573 -1.267095
1.492726 -0.092144 -1.912100
1.032008 -0.331717 -1.930529
-1.492726 -0.092144 -1.912100
-1.455868 0.129001 -1.709384
1.713870 0.479147 -1.764670
1.455868 0.129001 -1.709384
-1.713870 0.479147 -1.764670
2.027158 1.013579 -1.783099
1.953444 0.350146 -2.133245
-2.027158 1.013579 -1.783099
-1.750728 0.884578 -1.635669
1.677013 1.142580 -1.709384
1.750728 0.884578 -1.635669
-1.677013 1.142580 -1.709384
-1.621727 0.976722 -1.469811
1.161009 1.419011 -1.561954
1.621727 0.976722 -1.469811
-1.161009 1.419011 -1.561954
-1.032008 1.290010 -1.303952
0.737149 1.511154 -1.211809
1.032008 1.290010 -1.303952
-0.737149 1.511154 -1.211809
0.368574 1.695442 -1.396096
0.755577 1.787585 -1.451382
-0.368574 1.695442 -1.396096
-0.479147 1.455868 -1.174951
0.147430 1.161009 -1.414525
0.479147 1.455868 -1.174951
-0.147430 1.161009 -1.414525
-0.239573 1.013579 -1.193380
0.000000 1.013579 -1.432953
0.239573 1.013579 -1.193380
0.000000 0.829292 -1.248666
0.589719 1.105723 -1.396096
0.387003 0.976722 -1.359238
-0.589719 1.105723 -1.396096
0.774006 1.124151 -1.432953
1.013579 1.032008 -1.488239
-0.774006 1.124151 -1.432953
1.419011 0.884578 -1.617240
-1.013579 1.032008 -1.488239
1.511154 0.700291 -1.654098
-1.419011 0.884578 -1.617240
1.474297 0.442289 -1.654098
-1.511154 0.700291 -1.654098
1.161009 0.147430 -1.598812
-1.474297 0.442289 -1.654098
0.884578 0.036857 -1.525097
-1.161009 0.147430 -1.598812
0.479147 0.221145 -1.432953
-0.884578 0.036857 -1.525097
0.000000 0.110572 -1.469811
-0.479147 0.221145 -1.432953
0.294859 0.718720 -1.377667
-0.294859 0.718720 -1.377667
0.000000 0.497575 -1.377667
0.313288 0.497575 -1.396096
-0.313288 0.497575 -1.396096
0.387003 0.331717 -1.414525
-0.387003 0.331717 -1.414525
0.147430 -2.082445 -1.543526
-0.147430 -2.082445 -1.543526
0.276431 -1.971872 -1.506668
-0.276431 -1.971872 -1.506668
0.258002 -1.695442 -1.451382
0.497575 -1.050437 -1.506668
0.276431 -1.621727 -1.451382
-0.276431 -1.621727 -1.451382
-0.497575 -1.050437 -1.506668
-0.258002 -1.695442 -1.451382
0.000000 -0.774006 -1.432953
0.184287 -1.050437 -1.414525
0.202716 -0.681862 -1.432953
-0.184287 -1.050437 -1.414525
0.000000 -1.050437 -1.414525
0.000000 -1.603298 -1.451382
0.000000 -1.806014 -1.451382
0.294859 -0.534433 -1.414525
0.221145 -0.645005 -1.340810
-0.221145 -0.645005 -1.340810
-0.294859 -0.534433 -1.414525
-0.202716 -0.681862 -1.432953
0.239573 -0.350146 -1.432953
0.313288 -0.534433 -1.303952
-0.313288 -0.534433 -1.303952
-0.239573 -0.350146 -1.432953
0.092144 -0.294859 -1.340810
0.000000 -0.331717 -1.432953
-0.092144 -0.294859 -1.340810
-0.258002 -0.313288 -1.340810
0.000000 -0.442289 -1.303952
0.000000 -0.460718 -1.414525
0.000000 -0.755577 -1.340810
0.000000 -0.681862 -1.285524
-0.184287 -0.589719 -1.285524
0.110572 -0.350146 -1.267095
-0.110572 -0.350146 -1.267095
0.221145 -0.368574 -1.267095
0.258002 -0.313288 -1.340810
-0.221145 -0.368574 -1.267095
-0.258002 -0.534433 -1.230237
0.184287 -0.589719 -1.285524
0.258002 -0.534433 -1.230237
0.000000 -0.479147 -1.230237
0.387003 -0.571290 -1.506668
-0.387003 -0.571290 -1.506668
-0.423860 -0.737149 -1.506668
0.423860 -0.737149 -1.506668
0.608148 -0.737149 -1.875242
-0.608148 -0.737149 -1.875242
0.552861 -0.589719 -1.875242
-0.552861 -0.589719 -1.875242
0.221145 -1.750728 -1.469811
-0.221145 -1.750728 -1.469811
0.000000 -1.824443 -1.488239
0.221145 -1.935015 -1.506668
-0.221145 -1.935015 -1.506668
0.110572 -2.045587 -1.561954
-0.110572 -2.045587 -1.561954
0.000000 -2.100873 -1.561954
0.000000 -2.064016 -1.561954
0.000000 -2.027158 -1.690955
-0.110572 -2.008730 -1.690955
0.221145 -1.916586 -1.672527
0.110572 -2.008730 -1.690955
-0.221145 -1.916586 -1.672527
0.221145 -1.769156 -1.617240
-0.221145 -1.769156 -1.617240
0.000000 -1.842871 -1.635669
0.442289 0.368574 -1.359238
0.405432 0.516004 -1.340810
-0.442289 0.368574 -1.359238
-0.405432 0.516004 -1.340810
0.423860 0.700291 -1.340810
-0.423860 0.700291 -1.340810
0.497575 0.884578 -1.340810
-0.497575 0.884578 -1.340810
-0.534433 0.258002 -1.340810
0.884578 0.147430 -1.432953
0.534433 0.258002 -1.340810
-0.884578 0.147430 -1.432953
1.124151 0.239573 -1.488239
-1.124151 0.239573 -1.488239
1.363725 0.460718 -1.580383
-1.363725 0.460718 -1.580383
1.382154 0.681862 -1.561954
-1.382154 0.681862 -1.561954
-1.326867 0.829292 -1.543526
1.326867 0.829292 -1.543526
-0.995151 0.939864 -1.359238
0.792435 1.013579 -1.396096
0.995151 0.939864 -1.359238
-0.792435 1.013579 -1.396096
0.645005 0.995151 -1.359238
-0.645005 0.995151 -1.359238
0.663434 0.939864 -1.377667
-0.663434 0.939864 -1.377667
-0.552861 0.847721 -1.396096
0.792435 0.958293 -1.414525
-0.792435 0.958293 -1.414525
0.976722 0.921436 -1.414525
-0.976722 0.921436 -1.414525
1.253152 0.792435 -1.580383
-1.253152 0.792435 -1.580383
1.308439 0.663434 -1.598812
-1.308439 0.663434 -1.598812
1.290010 0.497575 -1.598812
-1.290010 0.497575 -1.598812
1.087294 0.276431 -1.525097
-1.087294 0.276431 -1.525097
0.884578 0.202716 -1.469811
-0.884578 0.202716 -1.469811
0.571290 0.294859 -1.396096
-0.571290 0.294859 -1.396096
0.479147 0.405432 -1.414525
-0.479147 0.405432 -1.414525
0.460718 0.700291 -1.396096
0.552861 0.847721 -1.396096
-0.460718 0.700291 -1.396096
0.460718 0.534433 -1.414525
-0.460718 0.534433 -1.414525
0.258002 1.087294 -1.746241
0.000000 0.958293 -1.764670
-0.258002 1.087294 -1.746241
0.460718 1.566441 -1.727813
-0.460718 1.566441 -1.727813
-0.755577 1.787585 -1.451382
-0.792435 1.621727 -1.783099
0.792435 1.621727 -1.783099
-1.142580 1.308439 -1.875242
1.142580 1.308439 -1.875242
-1.603298 1.068865 -2.022672
1.879729 0.958293 -2.096387
1.603298 1.068865 -2.022672
-1.879729 0.958293 -2.096387
-1.953444 0.350146 -2.133245
-1.824443 0.387003 -2.299103
1.419011 0.000000 -2.206959
1.824443 0.387003 -2.299103
-1.419011 0.000000 -2.206959
1.032008 -0.221145 -2.077958
-1.032008 -0.221145 -2.077958
0.000000 -1.142580 -2.520247
0.294859 -1.271581 -2.335960
0.000000 -1.345296 -2.428104
-0.294859 -1.271581 -2.335960
-0.423860 -0.976722 -2.575533
0.331717 -1.787585 -2.317532
0.000000 -1.898157 -2.372818
-0.331717 -1.787585 -2.317532
0.387003 -2.229874 -2.151673
0.000000 -2.303589 -2.096387
-0.387003 -2.229874 -2.151673
0.774006 -2.156159 -2.243817
-0.774006 -2.156159 -2.243817
0.681862 -1.677013 -2.280674
-0.681862 -1.677013 -2.280674
0.589719 -1.179438 -2.262245
-0.589719 -1.179438 -2.262245
0.423860 -0.976722 -2.575533
0.552861 -0.829292 -2.225388
-0.552861 -0.829292 -2.225388
0.516004 -0.663434 -2.170102
-0.516004 -0.663434 -2.170102
-0.497575 -0.534433 -2.077958
0.479147 -0.405432 -2.004243
-0.479147 -0.405432 -2.004243
-1.032008 -0.331717 -1.930529
0.792435 0.129001 -4.750122
0.000000 -0.460718 -4.768550
0.000000 0.165858 -5.137125
-0.792435 0.129001 -4.750122
-0.810863 -0.350146 -4.455262
0.810863 -0.350146 -4.455262
0.000000 -0.903007 -4.012973
-0.700291 -0.737149 -3.810257
0.497575 -0.921436 -2.796678
0.000000 -1.087294 -2.741392
-0.497575 -0.921436 -2.796678
1.732299 -0.110572 -3.017823
2.008730 0.552861 -3.054680
-1.732299 -0.110572 -3.017823
-2.008730 0.552861 -3.054680
1.087294 1.032008 -4.842265
0.000000 1.326867 -5.192410
-1.087294 1.032008 -4.842265
1.068865 2.008730 -2.630820
0.000000 2.322018 -3.367968
0.000000 2.119302 -2.501819
-1.068865 2.008730 -2.630820
-1.068865 2.193017 -3.349540
1.068865 2.045587 -4.086688
0.000000 2.119302 -4.473691
-1.068865 2.045587 -4.086688
1.713870 0.958293 -2.391246
1.492726 1.068865 -2.520247
-1.713870 0.958293 -2.391246
-1.492726 1.068865 -2.520247
1.879729 1.326867 -2.888822
1.511154 1.658584 -3.054680
-1.879729 1.326867 -2.888822
-1.511154 1.658584 -3.054680
1.879729 1.455868 -3.460112
1.511154 1.769156 -3.644399
-1.879729 1.455868 -3.460112
-1.511154 1.769156 -3.644399
1.879729 1.271581 -4.031402
1.511154 1.603298 -4.234118
-1.879729 1.271581 -4.031402
-1.511154 1.603298 -4.234118
1.455868 0.774006 -4.565835
1.824443 0.626576 -4.215689
-1.455868 0.774006 -4.565835
1.068865 2.193017 -3.349540
1.087294 1.234724 -2.170102
-1.087294 1.234724 -2.170102
0.000000 1.345296 -1.838385
2.027158 0.755577 -3.294253
-2.027158 0.755577 -3.294253
1.935015 0.774006 -3.662827
-1.935015 0.774006 -3.662827
0.700291 -0.737149 -3.810257
0.958293 -0.405432 -2.833535
-0.958293 -0.405432 -2.833535
-1.013579 -0.460718 -3.681256
1.400582 -0.294859 -3.570684
-1.400582 -0.294859 -3.570684
0.497575 -0.534433 -2.077958
1.511154 -0.018429 -4.197260
-1.511154 -0.018429 -4.197260
-1.142580 0.055286 -4.473691
1.013579 -0.460718 -3.681256
1.142580 0.055286 -4.473691
2.100873 0.958293 -3.736542
2.395733 0.976722 -3.865543
2.414161 1.124151 -3.920830
-2.100873 0.958293 -3.736542
-2.395733 0.976722 -3.865543
-2.174588 0.847721 -3.699685
2.801164 1.032008 -4.105117
2.911737 1.197866 -4.178832
-2.801164 1.032008 -4.105117
-2.414161 1.124151 -3.920830
-2.911737 1.197866 -4.178832
3.188167 0.755577 -4.178832
-3.188167 0.755577 -4.178832
-2.985451 0.681862 -4.141974
2.985451 0.681862 -4.141974
3.022309 0.129001 -4.197260
-3.022309 0.129001 -4.197260
-2.856451 0.184287 -4.141974
2.856451 0.184287 -4.141974
2.451019 -0.239573 -3.957687
-2.451019 -0.239573 -3.957687
-2.432590 -0.092144 -3.902401
1.953444 -0.165858 -3.496969
1.824443 -0.331717 -3.478540
-1.953444 -0.165858 -3.496969
-1.824443 -0.331717 -3.478540
2.432590 -0.092144 -3.902401
2.082445 -0.055286 -3.681256
-2.082445 -0.055286 -3.681256
2.451019 0.000000 -4.049830
-2.451019 0.000000 -4.049830
2.911737 0.589719 -4.234118
-2.911737 0.589719 -4.234118
-2.801164 0.221145 -4.234118
2.764307 0.847721 -4.215689
-2.764307 0.847721 -4.215689
2.414161 0.810863 -4.031402
-2.414161 0.810863 -4.031402
2.229874 0.718720 -3.865543
-2.229874 0.718720 -3.865543
1.713870 0.000000 -3.349540
-1.713870 0.000000 -3.349540
-1.695442 -0.055286 -3.589113
1.695442 -0.055286 -3.589113
2.174588 0.847721 -3.699685
1.916586 -0.036857 -3.828686
-1.916586 -0.036857 -3.828686
1.695442 0.092144 -3.625970
1.990301 0.036857 -3.828686
-1.695442 0.092144 -3.625970
1.787585 0.221145 -3.828686
1.935015 0.202716 -3.828686
-1.990301 0.036857 -3.828686
-1.787585 0.221145 -3.828686
-1.935015 0.202716 -3.828686
1.879729 0.479147 -3.681256
1.971872 0.405432 -3.828686
-1.879729 0.479147 -3.681256
2.100873 0.571290 -3.810257
1.990301 0.681862 -3.681256
-2.100873 0.571290 -3.810257
-1.971872 0.405432 -3.828686
-1.990301 0.681862 -3.681256
2.100873 0.552861 -3.939258
2.248303 0.681862 -3.994545
-2.100873 0.552861 -3.939258
-2.248303 0.681862 -3.994545
-1.990301 0.405432 -3.939258
1.806014 0.221145 -3.939258
1.990301 0.405432 -3.939258
-1.806014 0.221145 -3.939258
-1.953444 0.184287 -3.939258
1.953444 0.184287 -3.939258
-2.008730 0.036857 -3.939258
1.916586 -0.036857 -3.939258
2.008730 0.036857 -3.939258
-1.916586 -0.036857 -3.939258
2.082445 -0.036857 -3.810257
-2.082445 -0.036857 -3.810257
2.451019 0.774006 -4.160403
-2.451019 0.774006 -4.160403
2.801164 0.810863 -4.326262
-2.801164 0.810863 -4.326262
2.967023 0.571290 -4.344690
-2.967023 0.571290 -4.344690
2.856451 0.202716 -4.326262
2.801164 0.221145 -4.234118
-2.856451 0.202716 -4.326262
2.469448 0.000000 -4.178832
-2.469448 0.000000 -4.178832
2.100873 0.258002 -3.957687
-2.100873 0.258002 -3.957687
-2.211446 0.147430 -3.976116
2.211446 0.147430 -3.976116
2.266732 0.405432 -4.012973
-2.266732 0.405432 -4.012973
-2.358875 0.294859 -4.049830
2.487876 0.442289 -4.086688
2.395733 0.552861 -4.068259
-2.487876 0.442289 -4.086688
-2.395733 0.552861 -4.068259
2.561591 0.645005 -4.105117
-2.561591 0.645005 -4.105117
-2.616877 0.497575 -4.105117
2.616877 0.497575 -4.105117
1.861300 -0.294859 -3.957687
2.451019 -0.202716 -4.344690
-1.861300 -0.294859 -3.957687
-2.451019 -0.202716 -4.344690
3.096024 0.129001 -4.436833
-3.096024 0.129001 -4.436833
3.225025 0.700291 -4.363119
-3.225025 0.700291 -4.363119
2.948594 1.105723 -4.473691
-2.948594 1.105723 -4.473691
2.414161 1.032008 -4.326262
-2.414161 1.032008 -4.326262
2.027158 0.903007 -4.086688
-2.027158 0.903007 -4.086688
-1.824443 0.626576 -4.215689
-0.387003 0.976722 -1.359238
2.358875 0.294859 -4.049830
3 0 1 2
3 3 4 5
3 2 6 7
3 8 5 9
3 1 10 6
3 11 3 8
3 12 13 1
3 14 15 3
3 16 17 13
3 18 19 14
3 13 20 10
3 21 14 11
3 22 20 17
3 23 21 24
3 25 22 17
3 23 26 18
3 27 28 22
3 29 30 23
3 28 31 22
3 29 24 32
3 33 34 28
3 35 32 36
3 37 28 38
3 39 29 35
3 40 33 37
3 41 35 42
3 43 44 33
3 42 36 45
3 2 46 43
3 5 45 9
3 0 43 40
3 4 42 5
3 40 47 0
3 41 48 49
3 37 50 40
3 39 49 51
3 38 52 37
3 53 51 54
3 27 55 38
3 30 54 56
3 27 57 58
3 59 30 56
3 25 60 57
3 61 26 59
3 16 62 60
3 63 19 61
3 12 47 62
3 48 15 63
3 64 62 47
3 48 63 65
3 60 62 64
3 65 63 61
3 64 57 60
3 61 59 65
3 64 58 57
3 59 56 65
3 64 55 58
3 56 54 65
3 64 52 55
3 54 51 65
3 64 50 52
3 51 49 65
3 64 47 50
3 49 48 65
3 66 67 68
3 69 67 70
3 71 68 72
3 73 74 69
3 75 71 72
3 73 76 77
3 78 79 75
3 80 81 76
3 82 83 78
3 84 85 81
3 86 87 88
3 89 90 91
3 92 87 93
3 94 89 95
3 92 96 97
3 98 94 95
3 99 96 100
3 101 98 102
3 103 104 99
3 105 102 106
3 107 108 103
3 109 106 110
3 107 111 112
3 113 109 110
3 114 111 115
3 116 113 117
3 118 119 114
3 120 117 121
3 122 123 118
3 122 121 124
3 125 123 126
3 127 121 117
3 125 111 119
3 113 127 117
3 112 128 129
3 110 130 113
3 108 129 131
3 106 132 110
3 104 131 133
3 102 134 106
3 96 133 135
3 98 136 102
3 97 135 137
3 95 138 98
3 87 137 139
3 89 140 95
3 88 139 141
3 91 142 89
3 141 143 88
3 143 144 91
3 123 145 126
3 121 146 124
3 145 147 148
3 147 146 149
3 150 147 143
3 151 147 149
3 152 70 66
3 70 153 69
3 154 66 71
3 69 155 73
3 154 79 156
3 155 80 73
3 157 158 83
3 159 160 84
3 156 83 158
3 84 161 159
3 162 163 164
3 162 165 166
3 163 167 158
3 165 167 166
3 156 167 168
3 161 167 159
3 169 170 164
3 171 172 173
3 174 175 169
3 176 177 172
3 178 174 179
3 180 177 181
3 182 179 183
3 182 179 180
3 164 184 162
3 173 184 171
3 170 185 184
3 171 185 186
3 182 187 178
3 188 182 180
3 178 189 190
3 191 180 181
3 189 175 190
3 191 176 192
3 175 193 170
3 186 176 171
3 194 187 195
3 192 188 191
3 195 193 194
3 186 195 192
3 179 88 143
3 91 179 143
3 174 196 88
3 197 177 91
3 164 196 169
3 173 197 198
3 163 199 164
3 165 198 160
3 200 157 82
3 201 160 198
3 202 199 200
3 203 198 197
3 86 196 202
3 197 90 203
3 168 204 156
3 168 205 206
3 154 204 207
3 205 155 208
3 152 207 209
3 208 153 210
3 211 209 212
3 210 211 212
3 209 213 212
3 210 213 214
3 209 215 216
3 217 210 214
3 207 218 215
3 219 208 217
3 206 218 204
3 206 219 220
3 220 216 218
3 214 220 219
3 218 216 215
3 217 214 219
3 148 221 222
3 223 149 224
3 145 222 225
3 224 146 226
3 145 227 126
3 146 228 226
3 141 221 150
3 144 223 229
3 141 230 231
3 232 144 229
3 139 233 230
3 234 142 232
3 137 235 233
3 236 140 234
3 135 237 235
3 238 138 236
3 131 237 133
3 134 238 239
3 129 240 131
3 132 239 241
3 129 242 243
3 244 132 241
3 128 245 242
3 246 130 244
3 125 227 245
3 228 127 246
3 227 247 245
3 228 248 249
3 242 247 250
3 248 244 251
3 242 252 243
3 244 253 251
3 243 254 240
3 241 255 253
3 237 254 256
3 255 238 257
3 237 258 235
3 238 259 257
3 233 258 260
3 259 234 261
3 233 262 230
3 234 263 261
3 230 264 231
3 232 265 263
3 221 264 266
3 265 223 267
3 227 268 269
3 270 228 249
3 225 271 268
3 272 226 270
3 222 266 271
3 267 224 272
3 122 273 274
3 275 122 274
3 118 276 273
3 277 120 275
3 115 276 114
3 278 277 279
3 107 280 115
3 109 279 281
3 103 282 107
3 105 281 283
3 103 284 285
3 286 105 283
3 100 284 99
3 287 286 288
3 100 289 290
3 291 287 288
3 92 292 289
3 293 94 291
3 294 295 296
3 294 297 298
3 296 299 300
3 296 301 297
3 300 302 303
3 300 304 301
3 68 303 302
3 303 74 304
3 72 302 305
3 304 77 306
3 75 305 307
3 306 76 308
3 78 307 309
3 308 81 310
3 307 295 309
3 297 308 310
3 305 299 307
3 306 301 304
3 309 311 312
3 310 298 297
3 82 309 312
3 310 85 313
3 314 202 200
3 315 203 316
3 312 200 82
3 313 201 315
3 202 317 86
3 203 318 316
3 317 93 86
3 318 319 293
3 320 321 322
3 323 321 324
3 325 326 321
3 324 326 327
3 326 328 329
3 330 326 329
3 329 311 294
3 298 329 294
3 311 314 312
3 298 315 330
3 290 331 332
3 333 288 334
3 335 322 336
3 337 322 323
3 338 339 340
3 341 339 342
3 339 343 344
3 345 339 344
3 344 335 336
3 337 344 336
3 285 346 347
3 348 283 349
3 347 350 351
3 352 349 353
3 351 354 355
3 356 353 357
3 355 358 359
3 360 357 361
3 362 358 363
3 364 360 361
3 335 359 362
3 361 337 364
3 343 355 359
3 357 345 361
3 365 351 355
3 353 342 357
3 338 347 351
3 349 341 353
3 285 366 282
3 283 367 349
3 366 340 368
3 367 340 341
3 273 280 282
3 279 275 281
3 273 366 368
3 367 275 368
3 274 273 368
3 368 275 274
3 290 346 284
3 288 348 334
3 332 350 346
3 352 334 348
3 369 354 350
3 356 370 352
3 358 371 363
3 360 372 356
3 373 374 328
3 327 375 376
3 374 377 331
3 375 378 376
3 289 374 331
3 375 291 333
3 292 314 374
3 315 293 375
3 314 328 374
3 375 330 315
3 292 317 379
3 316 318 293
3 380 362 363
3 381 364 382
3 362 320 335
3 364 323 382
3 383 380 377
3 376 381 382
3 325 383 373
3 324 376 382
3 320 384 325
3 324 382 323
3 385 386 387
3 388 389 390
3 387 391 392
3 393 394 395
3 391 396 392
3 393 397 398
3 399 400 396
3 398 401 402
3 403 404 400
3 402 405 406
3 404 407 408
3 409 405 410
3 411 412 407
3 413 406 409
3 403 414 411
3 415 402 406
3 416 403 399
3 417 402 418
3 419 399 391
3 420 398 417
3 421 391 386
3 422 393 420
3 386 423 421
3 424 389 422
3 377 425 331
3 378 426 427
3 408 428 377
3 410 427 409
3 332 425 369
3 426 334 370
3 371 429 385
3 390 372 388
3 407 430 428
3 431 409 427
3 432 430 433
3 434 431 427
3 435 433 436
3 437 438 439
3 440 435 441
3 442 438 434
3 440 443 444
3 442 445 446
3 444 423 429
3 447 424 445
3 369 444 371
3 447 370 372
3 425 440 369
3 426 442 434
3 425 428 432
3 434 427 426
3 423 448 449
3 450 424 451
3 441 448 443
3 446 450 452
3 441 453 454
3 455 446 452
3 436 453 435
3 439 455 456
3 433 457 436
3 437 456 458
3 433 459 460
3 461 437 458
3 430 462 459
3 463 431 461
3 421 449 464
3 451 422 465
3 419 464 466
3 465 420 467
3 416 466 468
3 467 417 469
3 416 470 471
3 417 472 469
3 471 473 414
3 418 474 472
3 414 462 412
3 415 463 474
3 460 475 457
3 458 476 477
3 478 479 475
3 477 480 481
3 479 482 483
3 484 480 485
3 482 486 483
3 484 487 488
3 464 483 486
3 485 465 487
3 479 449 448
3 480 451 485
3 454 479 448
3 452 480 476
3 457 454 453
3 452 456 455
3 462 460 459
3 463 458 477
3 473 478 462
3 477 474 463
3 482 473 470
3 484 474 481
3 489 470 468
3 488 472 484
3 466 489 468
3 488 467 469
3 464 486 466
3 467 487 465
3 404 490 491
3 492 405 493
3 400 491 494
3 493 401 495
3 400 496 396
3 401 497 495
3 396 498 392
3 397 499 497
3 392 500 387
3 395 501 499
3 387 502 385
3 394 503 501
3 491 502 500
3 493 503 492
3 500 494 491
3 495 501 493
3 498 496 494
3 495 497 499
3 371 502 363
3 372 503 388
3 363 490 380
3 492 504 381
3 377 490 408
3 492 378 410
3 0 12 1
3 3 15 4
3 2 1 6
3 8 3 5
3 1 13 10
3 11 14 3
3 12 16 13
3 14 19 15
3 16 25 17
3 18 26 19
3 13 17 20
3 21 18 14
3 22 31 20
3 23 18 21
3 25 27 22
3 23 30 26
3 27 38 28
3 29 53 30
3 28 34 31
3 29 23 24
3 33 44 34
3 35 29 32
3 37 33 28
3 39 53 29
3 40 43 33
3 41 39 35
3 43 46 44
3 42 35 36
3 2 7 46
3 5 42 45
3 0 2 43
3 4 41 42
3 40 50 47
3 41 4 48
3 37 52 50
3 39 41 49
3 38 55 52
3 53 39 51
3 27 58 55
3 30 53 54
3 27 25 57
3 59 26 30
3 25 16 60
3 61 19 26
3 16 12 62
3 63 15 19
3 12 0 47
3 48 4 15
3 66 70 67
3 69 74 67
3 71 66 68
3 73 77 74
3 75 79 71
3 73 80 76
3 78 83 79
3 80 84 81
3 82 157 83
3 84 160 85
3 86 93 87
3 89 319 90
3 92 97 87
3 94 319 89
3 92 100 96
3 98 287 94
3 99 104 96
3 101 287 98
3 103 108 104
3 105 101 102
3 107 112 108
3 109 105 106
3 107 115 111
3 113 278 109
3 114 119 111
3 116 278 113
3 118 123 119
3 120 116 117
3 122 124 123
3 122 120 121
3 125 119 123
3 127 505 121
3 125 128 111
3 113 130 127
3 112 111 128
3 110 132 130
3 108 112 129
3 106 134 132
3 104 108 131
3 102 136 134
3 96 104 133
3 98 138 136
3 97 96 135
3 95 140 138
3 87 97 137
3 89 142 140
3 88 87 139
3 91 144 142
3 141 150 143
3 143 151 144
3 123 124 145
3 121 505 146
3 145 124 147
3 147 124 146
3 150 148 147
3 151 143 147
3 152 211 70
3 70 211 153
3 154 152 66
3 69 153 155
3 154 71 79
3 155 161 80
3 157 163 158
3 159 165 160
3 156 79 83
3 84 80 161
3 162 166 163
3 162 173 165
3 163 166 167
3 165 159 167
3 156 158 167
3 161 168 167
3 169 175 170
3 171 176 172
3 174 190 175
3 176 181 177
3 178 190 174
3 180 179 177
3 182 178 179
3 164 170 184
3 173 162 184
3 170 193 185
3 171 184 185
3 182 195 187
3 188 195 182
3 178 187 189
3 191 188 180
3 189 194 175
3 191 181 176
3 175 194 193
3 186 192 176
3 194 189 187
3 192 195 188
3 195 185 193
3 186 185 195
3 179 174 88
3 91 177 179
3 174 169 196
3 197 172 177
3 164 199 196
3 173 172 197
3 163 157 199
3 165 173 198
3 200 199 157
3 201 85 160
3 202 196 199
3 203 201 198
3 86 88 196
3 197 91 90
3 168 206 204
3 168 161 205
3 154 156 204
3 205 161 155
3 152 154 207
3 208 155 153
3 211 152 209
3 210 153 211
3 209 216 213
3 210 212 213
3 209 207 215
3 217 208 210
3 207 204 218
3 219 205 208
3 206 220 218
3 206 205 219
3 220 213 216
3 214 213 220
3 148 150 221
3 223 151 149
3 145 148 222
3 224 149 146
3 145 225 227
3 146 505 228
3 141 231 221
3 144 151 223
3 141 139 230
3 232 142 144
3 139 137 233
3 234 140 142
3 137 135 235
3 236 138 140
3 135 133 237
3 238 136 138
3 131 240 237
3 134 136 238
3 129 243 240
3 132 134 239
3 129 128 242
3 244 130 132
3 128 125 245
3 246 127 130
3 125 126 227
3 228 505 127
3 227 269 247
3 228 246 248
3 242 245 247
3 248 246 244
3 242 250 252
3 244 241 253
3 243 252 254
3 241 239 255
3 237 240 254
3 255 239 238
3 237 256 258
3 238 236 259
3 233 235 258
3 259 236 234
3 233 260 262
3 234 232 263
3 230 262 264
3 232 229 265
3 221 231 264
3 265 229 223
3 227 225 268
3 270 226 228
3 225 222 271
3 272 224 226
3 222 221 266
3 267 223 224
3 122 118 273
3 275 120 122
3 118 114 276
3 277 116 120
3 115 280 276
3 278 116 277
3 107 282 280
3 109 278 279
3 103 285 282
3 105 109 281
3 103 99 284
3 286 101 105
3 100 290 284
3 287 101 286
3 100 92 289
3 291 94 287
3 92 93 292
3 293 319 94
3 294 311 295
3 294 296 297
3 296 295 299
3 296 300 301
3 300 299 302
3 300 303 304
3 68 67 303
3 303 67 74
3 72 68 302
3 304 74 77
3 75 72 305
3 306 77 76
3 78 75 307
3 308 76 81
3 307 299 295
3 297 301 308
3 305 302 299
3 306 308 301
3 309 295 311
3 310 313 298
3 82 78 309
3 310 81 85
3 314 379 202
3 315 201 203
3 312 314 200
3 313 85 201
3 202 379 317
3 203 90 318
3 317 292 93
3 318 90 319
3 320 325 321
3 323 322 321
3 325 373 326
3 324 321 326
3 326 373 328
3 330 327 326
3 329 328 311
3 298 330 329
3 311 328 314
3 298 313 315
3 290 289 331
3 333 291 288
3 335 320 322
3 337 336 322
3 338 365 339
3 341 340 339
3 339 365 343
3 345 342 339
3 344 343 335
3 337 345 344
3 285 284 346
3 348 286 283
3 347 346 350
3 352 348 349
3 351 350 354
3 356 352 353
3 355 354 358
3 360 356 357
3 362 359 358
3 364 504 360
3 335 343 359
3 361 345 337
3 343 365 355
3 357 342 345
3 365 338 351
3 353 341 342
3 338 366 347
3 349 367 341
3 285 347 366
3 283 281 367
3 366 338 340
3 367 368 340
3 273 276 280
3 279 277 275
3 273 282 366
3 367 281 275
3 290 332 346
3 288 286 348
3 332 369 350
3 352 370 334
3 369 371 354
3 356 372 370
3 358 354 371
3 360 504 372
3 373 383 374
3 327 330 375
3 374 383 377
3 375 333 378
3 289 292 374
3 375 293 291
3 292 379 314
3 315 316 293
3 380 384 362
3 381 504 364
3 362 384 320
3 364 337 323
3 383 384 380
3 376 378 381
3 325 384 383
3 324 327 376
3 385 429 386
3 388 394 389
3 387 386 391
3 393 389 394
3 391 399 396
3 393 395 397
3 399 403 400
3 398 397 401
3 403 411 404
3 402 401 405
3 404 411 407
3 409 406 405
3 411 414 412
3 413 415 406
3 403 471 414
3 415 418 402
3 416 471 403
3 417 398 402
3 419 416 399
3 420 393 398
3 421 419 391
3 422 389 393
3 386 429 423
3 424 390 389
3 377 428 425
3 378 333 426
3 408 407 428
3 410 378 427
3 332 331 425
3 426 333 334
3 371 444 429
3 390 447 372
3 407 412 430
3 431 413 409
3 432 428 430
3 434 437 431
3 435 432 433
3 437 434 438
3 440 432 435
3 442 446 438
3 440 441 443
3 442 447 445
3 444 443 423
3 447 390 424
3 369 440 444
3 447 442 370
3 425 432 440
3 426 370 442
3 423 443 448
3 450 445 424
3 441 454 448
3 446 445 450
3 441 435 453
3 455 438 446
3 436 457 453
3 439 438 455
3 433 460 457
3 437 439 456
3 433 430 459
3 461 431 437
3 430 412 462
3 463 413 431
3 421 423 449
3 451 424 422
3 419 421 464
3 465 422 420
3 416 419 466
3 467 420 417
3 416 468 470
3 417 418 472
3 471 470 473
3 418 415 474
3 414 473 462
3 415 413 463
3 460 478 475
3 458 456 476
3 478 506 479
3 477 476 480
3 479 506 482
3 484 481 480
3 482 489 486
3 484 485 487
3 464 449 483
3 485 451 465
3 479 483 449
3 480 450 451
3 454 475 479
3 452 450 480
3 457 475 454
3 452 476 456
3 462 478 460
3 463 461 458
3 473 506 478
3 477 481 474
3 482 506 473
3 484 472 474
3 489 482 470
3 488 469 472
3 466 486 489
3 488 487 467
3 404 408 490
3 492 410 405
3 400 404 491
3 493 405 401
3 400 494 496
3 401 397 497
3 396 496 498
3 397 395 499
3 392 498 500
3 395 394 501
3 387 500 502
3 394 388 503
3 491 490 502
3 493 501 503
3 500 498 494
3 495 499 501
3 371 385 502
3 372 504 503
3 363 502 490
3 492 503 504
3 377 380 490
3 492 381 378
